<?xml version="1.0" standalone="no"?><!-- Generator: Gravit.io --><svg xmlns="http://www.w3.org/2000/svg" xmlns:xlink="http://www.w3.org/1999/xlink" style="isolation:isolate" viewBox="0 0 800 600" width="800" height="600"><defs><clipPath id="_clipPath_RjOViU1Zf0NVgilWnohdYBeK8PH64Ai9"><rect width="800" height="600"/></clipPath></defs><g clip-path="url(#_clipPath_RjOViU1Zf0NVgilWnohdYBeK8PH64Ai9)"><radialGradient id="_rgradient_0" fx="50%" fy="50%" cx="50%" cy="50%" r="50%"><stop offset="0%" style="stop-color:#FFFFFF"/><stop offset="100%" style="stop-color:#1A0F14"/></radialGradient><rect width="800" height="600" style="fill:url(#_rgradient_0);"/><path d=" M 563.614 319.497 L 531.957 375.112 L 500.3 430.727 C 493.838 442.08 477.985 451.362 464.922 451.442 L 400.93 451.834 L 336.937 452.226 C 323.874 452.306 307.909 443.219 301.308 431.946 L 268.973 376.722 L 236.637 321.499 C 230.036 310.226 229.924 291.856 236.386 280.503 L 268.043 224.888 L 299.7 169.273 C 306.162 157.92 322.015 148.638 335.078 148.558 L 399.07 148.166 L 463.063 147.774 C 476.126 147.694 492.091 156.781 498.692 168.054 L 531.027 223.278 L 563.363 278.501 C 569.964 289.774 570.076 308.144 563.614 319.497 Z " fill="rgb(17,34,51)"/><clipPath id="_clipPath_jlc9LSrmaE9mDqhX3YIMGHq0ocStckEk"><path d=" M 563.614 319.497 L 531.957 375.112 L 500.3 430.727 C 493.838 442.08 477.985 451.362 464.922 451.442 L 400.93 451.834 L 336.937 452.226 C 323.874 452.306 307.909 443.219 301.308 431.946 L 268.973 376.722 L 236.637 321.499 C 230.036 310.226 229.924 291.856 236.386 280.503 L 268.043 224.888 L 299.7 169.273 C 306.162 157.92 322.015 148.638 335.078 148.558 L 399.07 148.166 L 463.063 147.774 C 476.126 147.694 492.091 156.781 498.692 168.054 L 531.027 223.278 L 563.363 278.501 C 569.964 289.774 570.076 308.144 563.614 319.497 Z " fill="rgb(17,34,51)"/></clipPath><g clip-path="url(#_clipPath_jlc9LSrmaE9mDqhX3YIMGHq0ocStckEk)"><ellipse vector-effect="non-scaling-stroke" cx="305.8767852092631" cy="206.08643052214603" rx="75.93653403166178" ry="67.3475554361607" fill="rgb(255,1,1)"/><ellipse vector-effect="non-scaling-stroke" cx="494.1232147907351" cy="207.08643052214592" rx="75.93653403166181" ry="67.34755543616075" fill="rgb(0,153,0)"/><path d=" M 424.438 224.049 L 424.438 224.049 C 411.557 217.558 390.829 217.916 378.179 224.847 L 378.179 224.847 C 365.529 231.779 357.039 225.832 359.232 211.575 L 359.232 211.575 C 361.425 197.318 354.679 177.715 344.178 167.827 L 344.178 167.827 C 333.677 157.938 336.709 148.026 350.946 145.706 L 350.946 145.706 C 365.182 143.385 381.741 130.912 387.901 117.869 L 387.901 117.869 C 394.061 104.826 404.425 104.647 411.031 117.47 L 411.031 117.47 C 417.637 130.293 434.616 142.187 448.925 144.014 L 448.925 144.014 C 463.233 145.842 466.606 155.644 456.452 165.889 L 456.452 165.889 C 446.298 176.134 440.233 195.958 442.916 210.131 L 442.916 210.131 C 445.599 224.303 437.32 230.54 424.438 224.049 Z " fill="rgb(17,34,51)"/><ellipse vector-effect="non-scaling-stroke" cx="505.02308427518733" cy="300.0000000000004" rx="75.93653403166175" ry="67.3475554361607" fill="rgb(50,204,254)"/><ellipse vector-effect="non-scaling-stroke" cx="293.8767852092635" cy="299.9999999999996" rx="75.93653403166178" ry="67.3475554361607" fill="rgb(255,191,0)"/><path d=" M 424.926 352.894 L 423.41 352.13 C 410.947 345.85 390.892 346.196 378.653 352.902 L 377.164 353.718 C 364.925 360.425 356.711 354.671 358.832 340.877 L 359.09 339.199 C 361.212 325.405 354.685 306.439 344.525 296.871 L 343.289 295.707 C 333.129 286.14 336.063 276.55 349.837 274.305 L 351.513 274.032 C 365.287 271.787 381.308 259.719 387.268 247.099 L 387.993 245.564 C 393.952 232.945 403.98 232.772 410.371 245.178 L 411.149 246.687 C 417.54 259.094 433.968 270.602 447.812 272.37 L 449.496 272.585 C 463.339 274.353 466.603 283.836 456.779 293.749 L 455.583 294.955 C 445.759 304.867 439.891 324.047 442.487 337.759 L 442.803 339.428 C 445.399 353.14 437.389 359.174 424.926 352.894 Z " fill="rgb(17,34,51)"/><ellipse vector-effect="non-scaling-stroke" cx="494.12321479073466" cy="395.9135694778562" rx="75.93653403166181" ry="67.34755543616075" fill="rgb(0,0,254)"/><ellipse vector-effect="non-scaling-stroke" cx="305.8767852092632" cy="399.913569477856" rx="75.93653403166178" ry="67.34755543616069" fill="rgb(255,255,0)"/><path d=" M 378.252 375.454 L 378.252 375.454 C 390.895 382.398 411.623 382.776 424.511 376.297 L 424.511 376.297 C 437.399 369.819 445.672 376.064 442.975 390.234 L 442.975 390.234 C 440.278 404.404 446.323 424.234 456.467 434.489 L 456.467 434.489 C 466.611 444.744 463.229 454.542 448.919 456.356 L 448.919 456.356 C 434.609 458.169 417.618 470.047 410.999 482.863 L 410.999 482.863 C 404.38 495.68 394.017 495.491 387.87 482.442 L 387.87 482.442 C 381.723 469.392 365.176 456.903 350.942 454.569 L 350.942 454.569 C 336.707 452.235 333.684 442.32 344.195 432.441 L 344.195 432.441 C 354.706 422.563 361.471 402.967 359.292 388.708 L 359.292 388.708 C 357.114 374.449 365.609 368.51 378.252 375.454 Z " fill="rgb(17,34,51)"/></g></g></svg>